<svg width="150" height="150" viewBox="0 0 150 150" fill="none" xmlns="http://www.w3.org/2000/svg">
<g filter="url(#filter0_i_13_9)">
<path d="M75 0L150 75L75 150L0 75L75 0Z" fill="#FF7F00"/>
<path fill-rule="evenodd" clip-rule="evenodd" d="M68.5714 143.571L75 150L150 75L143.571 68.5714L68.5714 143.571Z" fill="url(#paint0_linear_13_9)" fill-opacity="0.79"/>
<path d="M89.0552 109.096H69.9632V39.8458H89.0552V72.836C94.9544 68.3155 100.453 63.298 105.55 57.7836C110.68 52.2692 115.088 46.2739 118.775 39.7977H131.808C128.409 45.6006 124.514 51.0189 120.122 56.0524C115.73 61.0859 110.953 65.7507 105.791 70.0468L133.443 109.096H113.533L92.7101 79.6649C92.101 80.0817 91.4918 80.4825 90.8827 80.8672C90.3056 81.2519 89.6964 81.6367 89.0552 82.0214V109.096Z" fill="white"/>
<path d="M83.4826 57.9901L75.8917 61.1862C75.2998 59.2626 74.5007 57.5018 73.4945 55.9037C72.5179 54.3056 71.3341 52.9442 69.9432 51.8196C68.5819 50.6655 67.0282 49.7776 65.2821 49.1562C63.536 48.5051 61.6272 48.1795 59.5556 48.1795C57.336 48.1795 55.294 48.5495 53.4296 49.2893C51.5947 49.9996 49.9375 50.991 48.4577 52.2636C47.0076 53.5361 45.7351 55.0158 44.6401 56.7027C43.5451 58.3896 42.6277 60.1948 41.8878 62.1185C41.1479 64.0125 40.6004 65.9805 40.2453 68.0225C39.8902 70.0645 39.7126 72.0622 39.7126 74.0154C39.7126 77.1228 40.0677 80.2154 40.778 83.2932C41.5179 86.371 42.6721 89.1381 44.2405 91.5944C45.8386 94.0507 47.8955 96.0483 50.411 97.5872C52.9265 99.0966 55.9747 99.8512 59.5556 99.8512C61.4496 99.8512 63.2401 99.5405 64.927 98.919C66.6139 98.2679 68.138 97.3949 69.4993 96.2999C70.8902 95.1753 72.1036 93.8584 73.1394 92.3491C74.1752 90.8397 75.0038 89.2121 75.6253 87.466L83.305 90.529C82.1805 93.3405 80.6416 95.8116 78.6883 97.9424C76.7351 100.044 74.5007 101.79 71.9852 103.181C69.4993 104.572 66.821 105.607 63.9504 106.288C61.1093 106.998 58.2387 107.353 55.3384 107.353C52.2014 107.353 49.1828 106.969 46.2826 106.199C43.4119 105.43 40.7336 104.335 38.2477 102.914C35.7618 101.494 33.4978 99.7772 31.4558 97.7648C29.4434 95.7524 27.7121 93.518 26.262 91.0617C24.8415 88.6054 23.7317 85.9419 22.9326 83.0712C22.1632 80.171 21.7785 77.1524 21.7785 74.0154C21.7785 70.8784 22.1632 67.8746 22.9326 65.0039C23.7317 62.1037 24.8415 59.4254 26.262 56.9691C27.7121 54.4831 29.4434 52.234 31.4558 50.2215C33.4978 48.2091 35.7618 46.4927 38.2477 45.0721C40.7336 43.6516 43.4119 42.5566 46.2826 41.7872C49.1828 41.0177 52.2014 40.633 55.3384 40.633C58.357 40.633 61.3017 40.9881 64.1723 41.6984C67.0726 42.4087 69.7656 43.4888 72.2516 44.939C74.7375 46.3595 76.9423 48.1647 78.8659 50.3547C80.8191 52.5151 82.358 55.0602 83.4826 57.9901Z" fill="white"/>
</g>
<defs>
<filter id="filter0_i_13_9" x="0" y="0" width="150" height="154" filterUnits="userSpaceOnUse" color-interpolation-filters="sRGB">
<feFlood flood-opacity="0" result="BackgroundImageFix"/>
<feBlend mode="normal" in="SourceGraphic" in2="BackgroundImageFix" result="shape"/>
<feColorMatrix in="SourceAlpha" type="matrix" values="0 0 0 0 0 0 0 0 0 0 0 0 0 0 0 0 0 0 127 0" result="hardAlpha"/>
<feOffset dy="4"/>
<feGaussianBlur stdDeviation="2"/>
<feComposite in2="hardAlpha" operator="arithmetic" k2="-1" k3="1"/>
<feColorMatrix type="matrix" values="0 0 0 0 0 0 0 0 0 0 0 0 0 0 0 0 0 0 0.25 0"/>
<feBlend mode="normal" in2="shape" result="effect1_innerShadow_13_9"/>
</filter>
<linearGradient id="paint0_linear_13_9" x1="-725" y1="-5.78014e-06" x2="-725" y2="150" gradientUnits="userSpaceOnUse">
<stop stop-color="white"/>
<stop offset="1" stop-color="#F5F5F5" stop-opacity="0"/>
</linearGradient>
</defs>
</svg>
